<svg xmlns="http://www.w3.org/2000/svg" fill="none" viewBox="0 0 90 90"><path fill="#f2f2f2" d="M0 0h90v90H0z"/><path fill="#333" d="M46.355 25c-3.993 0-7.567.86-10.721 2.586-3.106 1.675-5.546 4.017-7.32 7.024-1.775 3.007-2.663 6.458-2.663 10.352s.888 7.345 2.662 10.352c1.775 3.007 4.215 5.375 7.32 7.1C38.789 64.14 42.364 65 46.356 65c3.55 0 6.677-.771 9.467-2.143 2.394-1.177 4.035-3.072 5.709-5.053l-5.477-3.452V45c0-5.168-4.233-9.356-9.55-9.355-5.316 0-9.626 4.187-9.625 9.355.002 5.166 4.31 9.353 9.626 9.352a9.791 9.791 0 0 0 6.123-2.159l3.423 2.156c-1.104 1.337-2.387 2.378-3.853 3.11-1.824.888-3.797 1.332-5.916 1.332-2.564 0-4.857-.567-6.878-1.7-2.021-1.134-3.622-2.738-4.805-4.809-1.183-2.07-1.774-4.51-1.774-7.32 0-2.81.59-5.223 1.774-7.244 1.183-2.07 2.784-3.675 4.805-4.808 2.02-1.134 4.314-1.7 6.878-1.7 2.12 0 4.092.467 5.916 1.403 1.873.888 3.45 2.294 4.732 4.216l5.397-3.474 2.022-1.302-2.876-3.697-2.009 1.296a14.838 14.838 0 0 0-3.642-2.509C53.06 25.713 49.904 25 46.355 25Z"/></svg>